<?xml version="1.0" encoding="UTF-8"?>
<svg id="Layer_1" data-name="Layer 1" xmlns="http://www.w3.org/2000/svg" viewBox="0 0 358 358">
  <defs>
    <style>
      .cls-1 {
        fill: #fff;
      }

      .cls-2 {
        fill: #29294b;
      }
    </style>
  </defs>
  <rect class="cls-2" x="0" width="358" height="358" rx="59.86" ry="59.86"/>
  <g>
    <path class="cls-1" d="m227.5,277.28l-40.86-40.22c-.66-.65-1.03-1.54-1.03-2.47v-97.85c0-3.07,3.7-4.62,5.89-2.47l40.86,40.22c.66.65,1.03,1.54,1.03,2.47v97.85c0,3.07-3.7,4.62-5.89,2.47Z"/>
    <path class="cls-1" d="m133.17,277.28l40.86-40.22c.66-.65,1.03-1.54,1.03-2.47v-97.85c0-3.07-3.7-4.62-5.89-2.47l-40.86,40.22c-.66.65-1.03,1.54-1.03,2.47v97.85c0,3.07,3.7,4.62,5.89,2.47Z"/>
    <path class="cls-1" d="m289.66,242.36l-33.64,33.82c-4.45,4.47-12.08,1.32-12.08-4.99v-137.23c0-1.87.74-3.66,2.06-4.99l33.64-33.82c4.45-4.47,12.08-1.32,12.08,4.99v137.23c0,1.87-.74,3.66-2.06,4.99Z"/>
    <path class="cls-1" d="m71.01,242.36l33.64,33.82c4.45,4.47,12.08,1.32,12.08-4.99v-137.23c0-1.87-.74-3.66-2.06-4.99l-33.64-33.82c-4.45-4.47-12.08-1.32-12.08,4.99v137.23c0,1.87.74,3.66,2.06,4.99Z"/>
  </g>
</svg>